<?xml version="1.0" encoding="UTF-8"?>
<svg id="_图层_2" data-name="图层 2" xmlns="http://www.w3.org/2000/svg" viewBox="0 0 56.64 59.25">
  <defs>
    <style>
      .cls-1 {
        fill: #e0cf9e;
      }
    </style>
  </defs>
  <g id="_图层_1-2" data-name="图层 1">
    <path class="cls-1" d="M33.49,38.31c-1.75,6.15,2.22,11.57,1.52,19.12-5.26-3.85-5.12-11.52-8.83-18.36l-15.66,20.18c-4.91-9.2,18.41-22.61,1.86-25.68.93-.9,2.46-1.58,3.75-3.8C11.02,25.2,3.7,23.94,0,16.75l21,7.49L18.6,0l9.85,21.35c4.1-6.04,3.75-13.67,10.47-17.6,1.77,7.06-3.94,11.97-4.48,18.87,8.23-.06,13.23-7.42,22.2-5.67-5.61,8.5-15.92,7.31-24.01,13.54,7.15,6.68,16.88,5.6,21.74,14.89-7.31,1.41-13.28-4.31-20.89-7.06Z"/>
  </g>
</svg>