<?xml version="1.0" encoding="UTF-8"?>
<svg id="_图层_2" data-name="图层 2" xmlns="http://www.w3.org/2000/svg" viewBox="0 0 50.48 55.86">
  <defs>
    <style>
      .cls-1 {
        fill: #e0cf9e;
      }
    </style>
  </defs>
  <g id="_图层_1-2" data-name="图层 1">
    <path class="cls-1" d="M24.11,33.34l-2.59,22.52c-1.95-7.64-.72-15.47-3.7-23.09-6.06-.44-11.51,1.19-17.82-.44,4.85-5.37,10.89-5.04,16.86-7.53-1.11-5.25-6.38-6.29-8.6-11.73,3.98-1.94,6.12,3.38,10.36,2.55,4.97-.98-.19-18.1,4.79-15.31,5.49,3.08-.64,13.24,3.7,24.24l20.85-2.51c.86.18,2.71,2.49,2.52,3.5-7.16.43-13.41.8-19.73,4.57,1.47,2.71,4.32,3.99,3.48,7.47-3.57.06-4.2-2.87-10.1-4.25Z"/>
  </g>
</svg>