<?xml version="1.0" encoding="UTF-8"?>
<svg id="_图层_2" data-name="图层 2" xmlns="http://www.w3.org/2000/svg" viewBox="0 0 94.85 105.15">
  <defs>
    <style>
      .cls-1 {
        fill: #e0cf9e;
      }
    </style>
  </defs>
  <g id="_图层_1-2" data-name="图层 1">
    <g>
      <path class="cls-1" d="M43.15,96.2c-.64,5.3-2.48,5.08-4,0-.81-1.26,0-4.47,0-5.99-.32-11.07-1.18-21.54-2.59-31.39-4.3,6.06-11.31,9.08-15.5,13.46-1.67.95-2.13.34-1.52-1.65l11.57-13.41c-10.8-3.14-20.58,3.66-31.12-2.58l39.19-5.77L15.75,20.46c10.94,1.81,14.36,10.65,22.19,15.88,1.47-12.42-1.4-25.04,4.37-36.34,3.78,15.01-.65,30.69,3.3,40.28,8.84-6.47,12.98-16.99,23.97-21.27l-22.99,29.59,48.25,3.38-36.7,4.92,16.47,20.69c-11.56-4.41-17.96-15.42-29.29-22.26-3.71,14.57-1.65,27.92-2.18,40.86Z"/>
      <path class="cls-1" d="M21.06,72.27c-5.65,5.89-8.58,13.57-16.81,17.77,3.38-7.93,9.39-13.86,15.29-19.42.43.61.94,1.17,1.52,1.65Z"/>
      <path class="cls-1" d="M39.15,90.2c-3.91,2.68-.89-27.57-2.59-31.39.84-1.19,2.67-.48,2.67,1.16l-.08,30.24Z"/>
      <path class="cls-1" d="M43.15,96.2c-.15,3.83,1.59,7.03-2.61,8.95-2.68-3.5.38-6.19-1.39-8.95h4Z"/>
    </g>
  </g>
</svg>