<?xml version="1.0" encoding="UTF-8"?>
<svg id="_图层_2" data-name="图层 2" xmlns="http://www.w3.org/2000/svg" viewBox="0 0 58.29 73.7">
  <defs>
    <style>
      .cls-1 {
        fill: #e0cf9e;
      }
    </style>
  </defs>
  <g id="_图层_1-2" data-name="图层 1">
    <path class="cls-1" d="M35.37,25.7c4.38-3.37,7.79-4.9,4.31,1.41-1.05,3.55-4.06,7.3-4.44,11.36,8.4,1.39,14.76-4.23,23.04-1.87-6.58,7.16-14.77,3.72-22.36,8.41,4.47,8.37,12.32,13.55,19.58,20.8-9.09-.41-15.19-6.35-22.61-11.71-.92,5.82,1.83,13.27-1.71,18.75-7.49,2.5-.36-13.54-7.09-17.13-5.3,5.08-7.64,11.08-12.23,16.26-1.71,1.93-7.25,2.46-6.73.49,2.55-9.68,11.42-14.92,14.51-24.51-7.19.06-12.62,4.43-19.66,2.98,4.91-7.9,13.76-6.87,22.69-11.04C14.39,31.88,8.2,24.35,2.69,16.47c9.72,3.06,13.69,11.42,22.23,16.07,2.11-12-3.27-22.65,4.12-32.54,3.5,10.47,1.14,19.1,2.56,29.46,2.29-.13,2.44-2.87,3.77-3.76Z"/>
  </g>
</svg>