<?xml version="1.0" encoding="UTF-8"?>
<svg id="_图层_2" data-name="图层 2" xmlns="http://www.w3.org/2000/svg" viewBox="0 0 102.9 113.88">
  <defs>
    <style>
      .cls-1 {
        fill: #e0cf9e;
      }
    </style>
  </defs>
  <g id="_图层_1-2" data-name="图层 1">
    <g>
      <path class="cls-1" d="M26.9,54.1c8.03-2.29,11.62-1.24,10.77,3.17-5.62,4.19-4.78,5.06,2.53,2.61,7.8,10.76,21.82-3.74,15.69-10.26-9.07,3.27-12.7,2.03-10.89-3.73,1.11-2.81.6-3.52-1.72-1.91-1.18.59-2.12,1-2.24.84-1.77-2.5-1.68-17.3-.06-21,2.16-7.46-.91-14.54-1.07-23.41,6.61-4.57,15.94,31.31,20.92,37.28,5.87-.27,46.43-27.43,41.7-16.37-3.09,7.21-9.93,10.14-15.11,15.16-6.03,5.85-11.35,12.15-17.93,17.54,1,9.62,27.36,33.88,25.34,38.91-.45,1.12-3.47,1.71-5.2.66l-32.73-19.71c-12.62,6.57-15.87,30.31-25.61,40-7.04-5.29,9.05-34.02,5.05-43.44-9.57-3.17-38.96,2.88-36.15-5.47,1.06-3.15,20.87-7.57,26.71-10.87Z"/>
      <g>
        <path class="cls-1" d="M43.27,43.97c2.76-2.92,3.96-1.6,1.72,1.91.72,1.72,2.7,2.22,5.03,1.19,5.05-2.22,9.09-2.34,11.71,3.2,2.28,4.81-7.51,16.89-11.84,17.85s-7.3-2.81-10.14-4.59c-6.11,2.59-14.7,2.68-20.9.15l17.34-8.43c-3.32-1.5-6.45-.72-9.3-1.16,2.7-1.53,7.36-2.47,10.89-3.25,3.58-3.23-1.57-26.77,3.18-27.03.69-2.38-2.08,15.61,2.3,20.16Z"/>
        <path class="cls-1" d="M44.99,45.88c-.25-.6-1.27-1.44-1.72-1.91.85-7.65,2.35-15.01,4.97-23.55,2.4,5.84,7.06,11.4,7.24,18.14.12,4.44-7.07,6.96-10.49,7.32Z"/>
        <path class="cls-1" d="M76.31,77.6c-7.26-1.38-12.52-6.09-19.27-8.46l8.6-10.15c3.84,6.98,7.83,10.35,10.67,18.61Z"/>
        <path class="cls-1" d="M67.05,48.89c-1.39,1.26-4.16-5.94-2.25-6.8,6.33-2.84,11-6.84,18.22-7.61l-15.97,14.41Z"/>
        <path class="cls-1" d="M48.78,71.98c-3.21,4.22-5.55,7.91-8.81,11.39-1.92-3.31-.81-6.32.36-9.11.9-2.12,3.17-5.81,8.45-2.28Z"/>
      </g>
    </g>
  </g>
</svg>