<?xml version="1.0" encoding="UTF-8"?>
<svg id="_图层_2" data-name="图层 2" xmlns="http://www.w3.org/2000/svg" viewBox="0 0 64.48 77.53">
  <defs>
    <style>
      .cls-1 {
        fill: #e0cf9e;
      }
    </style>
  </defs>
  <g id="_图层_1-2" data-name="图层 1">
    <path class="cls-1" d="M37.8,71.77c.18,2.51-1.37,3.78-1.39,5.17,0,.68-1.19.85-1.88.1-2.94-3.19.67-25.64-15.04-31.64-6.11-2.33-12.68,1.23-19.18-1.78-3.81-6.75,28.96.46,27.7-21.81l-.99-17.56c-.12-2.09,1.3-3.61,2.72-4.07,6.23-2.01,1.87,13.12,5.58,25.09,4.64,14.98,19.38,10.4,29.16,11.03-4.74,6.64-14.79,3.59-20.78,7.8-7.41,5.22-6.47,19.54-5.9,27.66Z"/>
  </g>
</svg>