<?xml version="1.0" encoding="UTF-8"?>
<svg id="_图层_2" data-name="图层 2" xmlns="http://www.w3.org/2000/svg" viewBox="0 0 84.87 89.62">
  <defs>
    <style>
      .cls-1 {
        fill: #e0cf9e;
      }
    </style>
  </defs>
  <g id="_图层_1-2" data-name="图层 1">
    <path class="cls-1" d="M82.3,43.41c3.99,1.73,3.33,3.06-2,3.99-9.25.54-18.59-1.63-28.85,1.21l18.92,20.47c-7.78-1.41-11.55-7.65-18.6-12.21-2.02,11.22.68,21.8-4.65,32.75l-3.06-40.65c-6.86,9.45-13.17,18.33-21.7,26.56-11.46,1.62,13.43-19.5,14.2-25.77-12.61-4.98-22.37,4.46-36.56-3.88,13.55-1.47,25.47,1.06,37.98-1.75.99-.3-.17-3.4-1.2-5.21-1.38-1.93-.97-2.28,1.17-1.1,13.93,10.34,1.22-29.44,10.19-37.82,4.47,10.85-.48,20.54,2.42,31.2l8.55-7.79-8.18,19.3c10.98,2.74,21.4-.1,31.37.7Z"/>
  </g>
</svg>