<?xml version="1.0" encoding="UTF-8"?>
<svg id="_图层_2" data-name="图层 2" xmlns="http://www.w3.org/2000/svg" viewBox="0 0 118.79 113.61">
  <defs>
    <style>
      .cls-1 {
        fill: #e0cf9e;
      }
    </style>
  </defs>
  <g id="_图层_1-2" data-name="图层 1">
    <path class="cls-1" d="M44.19,70.88c-3.75-1.36-27.44,10.35-34.88,17.44-1.85,1.76-4.47,1.33-5.97-.4-1.1-1.27-.2-3.11,1.74-5.01l19.25-18.8C39.6,49.21-.72,38.98,0,30.78c.19-2.16,3.46-4.08,6.16-3.13l32.17,11.33c-7.67,3.19-12.84-2.69-20.62-.37,4.92,4.29,10.63,9.7,16.67,12.23C39.93,53.56,76.03-.04,75.13.38c9.91-4.6-3.85,34.35-5.09,39.93,9.59,6.36,47.32,7.15,48.67,12.32,2.03,7.78-44,3.87-49.12,9.75-4.17,4.8,3.03,48.16.36,50.48-2.05,1.78-3.73.18-4.98-2.45l-15.93-33.42c-1.21-2.53-2.6-5.28-4.87-6.11Z"/>
  </g>
</svg>