<?xml version="1.0" encoding="UTF-8"?>
<svg id="_图层_2" data-name="图层 2" xmlns="http://www.w3.org/2000/svg" viewBox="0 0 75.92 95.58">
  <defs>
    <style>
      .cls-1 {
        fill: #e0cf9e;
      }
    </style>
  </defs>
  <g id="_图层_1-2" data-name="图层 1">
    <path class="cls-1" d="M2.84,53.3c-3.84-.8-3.76-2.43.06-3.49,10.51-1.29,20-.62,29.18-3.42-7.94-8.12-16.51-13.07-21.62-21.99,8.3,1.85,11.33,9.09,18.68,11.9,6.69-2.3-2.18-31.82,6-36.3,1.18,14.9-1.5,28.69,4.77,41.82,7.81-7.27,12.8-15.85,22.02-20.07-4.9,8.33-12.08,14.19-16.35,23.41l30.35,1.98c-10.57,4.72-20.4,1.67-29.09,4.98,6.04,5.27,11.42,8.8,15.41,16.04-5.34,1.66-17.54-14.25-23.83-14.13-.25,14.73,1.33,28.16-2.94,41.56-4.67-12.02-2.37-23.41-3.79-35.85-7.91,5.38-10.52,14.77-19.6,19.6,2.82-10.9,12.02-15.9,16.14-25.34-9.2-1.46-17.55,2.12-25.39-.7Z"/>
  </g>
</svg>