<?xml version="1.0" encoding="UTF-8"?>
<svg id="_图层_2" data-name="图层 2" xmlns="http://www.w3.org/2000/svg" viewBox="0 0 73.76 72.24">
  <defs>
    <style>
      .cls-1 {
        fill: #e0cf9e;
      }
    </style>
  </defs>
  <g id="_图层_1-2" data-name="图层 1">
    <g>
      <path class="cls-1" d="M50.03,71.73c-5.1,4.33-10.35-20.53-18.95-15.05-5.55,3.53-11.01,6.27-16.89,9.11-3.88,1.88-6.19,9.26-11.71,3.24,7.75-8.53,14.34-16.47,19.56-26.15-6.16-6.08-14.27-8.5-21.57-12.49-1.06-.63-.12-4.62.84-6.15,8.55-.16,17.51,2.04,27.26,4.9L44.15,0c9.68,7.23.77,25.86,9.78,28.94,6.07,2.08,14.73-.56,19.83,5.12-.8,10.64-19.41,8.61-21.17,13.61-2.73,7.75-.29,16.4-2.55,24.07Z"/>
      <path class="cls-1" d="M45.93,59.38c-4.56-2.35-5.57-6.88-8.03-11.14l-17.05,7.01,6.53-14.04c-3.08-3.15-6.88-4.63-9.42-8.75,5.03-1.69,9.74.59,15.25,2.57,4.7-6.36,7.47-13.01,9.2-19.99,3.44,5.99,2.13,11.67,5.18,16.21,5.34,7.96,20.98-2.28,20.45,6.39-7.27,1.05-16.41,1.18-21.69,6.45-3.12,3.83,1,9.73-.43,15.29Z"/>
    </g>
  </g>
</svg>